<?xml version="1.0" encoding="UTF-8"?>
<svg version="1.1" xmlns="http://www.w3.org/2000/svg" width="1500" height="1500">
<path d="M0 0 C0.67916971 -0.00594224 1.35833942 -0.01188449 2.05809003 -0.0180068 C4.32713262 -0.03530864 6.59596328 -0.03839104 8.86506653 -0.04138184 C10.49488268 -0.05064343 12.12469452 -0.06069346 13.75450134 -0.07147217 C18.17828773 -0.09767616 22.60201347 -0.11060169 27.02586532 -0.11949348 C29.79240145 -0.12536277 32.55892115 -0.13357391 35.32544899 -0.14250183 C43.98909685 -0.16984169 52.65270698 -0.18917924 61.31639498 -0.19690561 C71.30274271 -0.20586149 81.28854217 -0.24093577 91.27472323 -0.2989068 C99.00316548 -0.34220706 106.73145386 -0.36231773 114.46001607 -0.36498785 C119.07151184 -0.36707944 123.68249189 -0.37879648 128.29385948 -0.41462708 C132.63531315 -0.44770472 136.97586672 -0.45184515 141.31740189 -0.43434906 C142.90482439 -0.43281435 144.49229644 -0.44141441 146.07959557 -0.46126556 C155.29015486 -0.56963743 162.94364476 -0.12099153 170.12605286 6.28088379 C172.62594601 9.43550203 174.38523806 12.65365667 176.12605286 16.28088379 C176.55920807 17.17752747 176.55920807 17.17752747 177.00111389 18.09228516 C179.39466485 23.07730182 181.67168081 28.11233179 183.93855286 33.15588379 C184.65735243 34.74319623 185.37667649 36.33027127 186.09651184 37.91711426 C187.82057117 41.72147444 189.53801619 45.52876307 191.25178528 49.33776855 C192.38012737 51.84558053 193.51102232 54.35223915 194.64167786 56.85900879 C195.66181706 59.12348581 196.68074858 61.3884824 197.69709778 63.65466309 C201.1882378 71.43809522 204.71956067 79.20320595 208.25105286 86.96838379 C208.56915924 87.66791168 208.88726563 88.36743958 209.2150116 89.08816528 C211.51815764 94.15264792 213.82202398 99.21680274 216.12605286 104.28088379 C218.75153618 110.05149738 221.37667089 115.82226923 224.00105286 121.59338379 C224.31988434 122.29444244 224.63871582 122.9955011 224.96720886 123.71780396 C228.51637309 131.52288504 232.05592562 139.33202537 235.56355286 147.15588379 C240.34958747 157.83053778 245.22953344 168.46246873 250.10432434 179.09680176 C254.00124332 187.60267387 257.86345216 196.12340231 261.69769287 204.65771484 C264.32075102 210.49527928 266.95542566 216.327451 269.59870911 222.15588379 C277.37857322 239.31620093 285.12660129 256.48837447 292.75105286 273.71838379 C296.97903213 283.27119194 301.23983048 292.79767581 305.77058411 302.21179199 C309.8358116 310.68767713 313.66724668 319.27022687 317.52156067 327.84338379 C318.12404758 329.18325099 318.72658726 330.52309447 319.32917786 331.86291504 C319.63293335 332.53835358 319.93668884 333.21379211 320.24964905 333.90969849 C322.60029317 339.12970257 324.97646584 344.3377424 327.36042786 349.54260254 C328.05887607 351.06976374 328.7572815 352.59694451 329.4556427 354.12414551 C330.4734715 356.3497664 331.49249898 358.57479437 332.51551819 360.79803467 C333.45931731 362.84941444 334.39858944 364.90281157 335.33699036 366.95666504 C335.87630188 368.13140381 336.4156134 369.30614258 336.9712677 370.51647949 C338.12605286 373.28088379 338.12605286 373.28088379 338.12605286 375.28088379 C338.78605286 375.28088379 339.44605286 375.28088379 340.12605286 375.28088379 C340.49988098 374.05885254 340.87370911 372.83682129 341.25886536 371.57775879 C343.34451278 365.33298482 346.18250719 359.47179292 349.00105286 353.53088379 C350.18269032 351.01808054 351.35981614 348.50317717 352.53620911 345.98791504 C352.9864872 345.02632225 352.9864872 345.02632225 353.44586182 344.04530334 C356.51827582 337.46976793 359.48438396 330.84778897 362.43855286 324.21838379 C367.23733155 313.46350827 372.09718185 302.73825364 377.00105286 292.03088379 C379.03036908 287.59925202 379.03036908 287.59925202 381.05964661 283.16760254 C381.39536682 282.43448853 381.73108704 281.70137451 382.07698059 280.94604492 C385.75221959 272.91776006 389.41030172 264.88169422 393.06355286 256.84338379 C393.38064209 256.14571899 393.69773132 255.4480542 394.02442932 254.72924805 C397.91975465 246.1567759 401.80029354 237.57784981 405.65534973 228.98718262 C409.41187221 220.62514299 413.21639738 212.28495991 417.01460266 203.94180298 C422.89743539 191.01595573 428.72723631 178.06659004 434.54685974 165.11218262 C439.31818521 154.49303668 444.12375224 143.89168755 449.00154114 133.32092285 C453.17449045 124.24320697 457.20719735 115.1040763 461.25105286 105.96838379 C465.64354083 96.04594069 470.0561673 86.14635776 474.76203918 76.36755371 C478.26730151 69.05662504 481.60317971 61.67031586 484.93855286 54.28088379 C485.38608917 53.29153336 485.38608917 53.29153336 485.84266663 52.28219604 C489.11116009 45.05516928 492.34096895 37.81449098 495.48152161 30.53088379 C496.01730782 29.29639365 496.55335425 28.0620164 497.0896759 26.82775879 C498.08486807 24.53026128 499.07006957 22.22839974 500.04328918 19.92150879 C503.58191887 11.77385669 507.12376188 5.07156508 515.45639038 1.10035706 C521.54114178 -0.76740381 528.1085131 -0.27148747 534.42097473 -0.23669434 C536.07418432 -0.24212031 537.72738906 -0.24924563 539.38058472 -0.25793457 C543.8537674 -0.27611449 548.32657958 -0.26912254 552.79976845 -0.25641823 C557.48987929 -0.24626285 562.17995927 -0.25569094 566.87007141 -0.26196289 C574.74500704 -0.26923192 582.61979241 -0.25967117 590.4947052 -0.24060059 C599.58797545 -0.21883327 608.68088691 -0.22588517 617.77414846 -0.24790621 C625.59350951 -0.26608146 633.4127628 -0.26860815 641.23213816 -0.25815153 C645.89702641 -0.25192827 650.56174623 -0.25104876 655.22662354 -0.26429749 C659.61315064 -0.27588635 663.99921696 -0.26777511 668.3856945 -0.24472046 C669.99166538 -0.23944953 671.59767531 -0.24091939 673.20363045 -0.24977112 C690.37426074 -0.33565808 690.37426074 -0.33565808 697.18464661 6.28088379 C697.63968567 6.94088379 698.09472473 7.60088379 698.56355286 8.28088379 C699.03663879 8.94088379 699.50972473 9.60088379 699.99714661 10.28088379 C702.84515999 15.32649919 703.02966822 21.74532175 701.61192322 27.29251099 C700.88322207 29.28657785 700.06700343 31.2096714 699.19245911 33.14416504 C698.8798262 33.86767654 698.5671933 34.59118805 698.24508667 35.33662415 C694.77116263 43.28659533 691.04023224 51.12303153 687.27955627 58.94042969 C685.16834647 63.32943172 683.07240625 67.72573256 680.97370911 72.12072754 C680.55560974 72.9951651 680.13751038 73.86960266 679.70674133 74.77053833 C676.09173319 82.33595948 672.53454613 89.92711804 669.00105286 97.53088379 C663.89597909 108.50873974 658.74121353 119.46209723 653.56355286 130.40588379 C647.42103204 143.39169598 641.33442171 156.40161575 635.29792786 169.43713379 C631.94227692 176.68333394 628.56726037 183.92041474 625.18855286 191.15588379 C624.89709381 191.78005188 624.60563477 192.40421997 624.30534363 193.04730225 C623.12618514 195.57242402 621.94700743 198.0975368 620.7677002 200.62258911 C618.74054081 204.96344899 616.715909 209.30548121 614.69245911 213.64807129 C608.19255004 227.59516407 601.66345795 241.52811182 595.10508728 255.44781494 C590.15884424 265.94657363 585.23942792 276.45743556 580.33995056 286.97808838 C575.45162009 297.47166011 570.51384082 307.94141723 565.56355286 318.40588379 C560.00535962 330.15568965 554.48801687 341.92256637 549.03059387 353.71960449 C545.99966365 360.2648358 542.94701974 366.79916633 539.87214661 373.32385254 C539.50892807 374.09463135 539.14570953 374.86541016 538.77148438 375.6595459 C536.98868263 379.44137718 535.20387222 383.22224863 533.41682434 387.0020752 C532.7651973 388.38276439 532.11358525 389.76346067 531.46199036 391.14416504 C531.16880417 391.76276901 530.87561798 392.38137299 530.57354736 393.01872253 C529.74842571 394.76842533 528.93706502 396.52459655 528.12605286 398.28088379 C527.82612427 398.88258392 527.52619568 399.48428406 527.21717834 400.10421753 C525.96937567 402.72424978 525.10922625 404.79480873 525.21052551 407.72106934 C526.50659582 411.34488191 528.09595706 414.77685729 529.77449036 418.23791504 C530.14270905 419.00903122 530.51092773 419.7801474 530.89030457 420.57463074 C531.67933922 422.22574732 532.47084965 423.87568265 533.26460266 425.52453613 C535.34688776 429.85068953 537.41095787 434.18553057 539.47761536 438.51916504 C539.88560364 439.37338043 540.29359192 440.22759583 540.71394348 441.10769653 C543.82993027 447.63796382 546.88141351 454.19394883 549.87605286 460.78088379 C553.76519371 469.3247036 557.71016293 477.84076064 561.68855286 486.34338379 C567.22562323 498.18053645 572.7170388 510.0382927 578.18855286 521.90588379 C583.82852003 534.13859787 589.47987812 546.36568439 595.16023254 558.57971191 C598.24008917 565.20647613 601.30750416 571.83878455 604.36433411 578.47619629 C605.88897002 581.78613989 607.41368665 585.09604627 608.93855286 588.40588379 C609.51205978 589.65078583 609.51205978 589.65078583 610.09715271 590.9208374 C615.77020392 603.23009931 621.51464384 615.50370471 627.30686951 627.75726318 C632.49363951 638.73689336 637.55398164 649.7690612 642.55412292 660.83477783 C647.63881712 672.08219562 652.8581698 683.26084812 658.13731384 694.41815186 C663.35797938 705.45737376 668.4544905 716.54705445 673.47584534 727.67822266 C677.13556918 735.78610666 680.85261217 743.862592 684.66902161 751.89807129 C685.24283821 753.10691483 685.24283821 753.10691483 685.82824707 754.34017944 C687.6795197 758.23608752 689.53760535 762.12856936 691.40510559 766.01672363 C704.45383326 793.29754257 704.45383326 793.29754257 700.87605286 804.03088379 C697.75917416 809.8193728 695.06285402 812.86882285 689.0402813 815.43626213 C682.84672755 817.23132032 676.33012407 816.84357546 669.93293762 816.81433105 C668.3025281 816.8213981 666.67212514 816.83014641 665.04173279 816.84043884 C660.63460164 816.86285466 656.22783094 816.86001148 651.82066464 816.85111737 C648.13290397 816.84599088 644.44521004 816.85331349 640.75745624 816.86058944 C632.05368312 816.87756367 623.35008543 816.87404764 614.64631653 816.8572998 C605.68536025 816.84037939 596.72489116 816.85621746 587.76398808 816.88852268 C580.05242497 816.91526434 572.34101309 816.9224823 564.6294083 816.9140076 C560.03149056 816.9090919 555.43386583 816.91122027 550.83598518 816.93179512 C546.51092198 816.95022446 542.18655659 816.94410575 537.8615303 816.91959572 C536.28058274 816.91461078 534.69958133 816.91801702 533.11867714 816.93074417 C522.54623012 817.0090807 514.1754795 816.12246896 506.26716614 808.53967285 C503.65163869 804.55882218 501.73419731 800.51259241 499.86824036 796.14025879 C499.08166149 794.34524707 498.29487197 792.55032765 497.50788879 790.75549316 C497.11226746 789.84404541 496.71664612 788.93259766 496.30903625 787.99353027 C494.47435572 783.78650614 492.58429547 779.60483501 490.69636536 775.42150879 C489.96205754 773.78807998 489.22800959 772.15453432 488.49421692 770.52087402 C482.40530345 756.9744642 476.30733437 743.43360438 470.09822083 729.94177246 C466.48840785 722.09169837 462.92778443 714.21984289 459.37605286 706.34338379 C454.49653685 695.5234271 449.60244405 684.71027569 444.68855286 673.90588379 C444.37776794 673.2225296 444.06698303 672.53917542 443.7467804 671.83511353 C442.17047067 668.36934189 440.59388118 664.90369761 439.01716614 661.43811035 C436.19737541 655.23991684 433.38005284 649.04060146 430.56254578 642.84136963 C429.00048274 639.40449498 427.43825969 635.96769307 425.87605286 632.53088379 C425.25105209 631.15588414 424.62605209 629.78088414 424.00105286 628.40588379 C423.69167786 627.72525879 423.38230286 627.04463379 423.06355286 626.34338379 C420.2510528 620.15588367 420.2510528 620.15588367 419.31364441 618.09358215 C418.6883423 616.71791955 418.06303712 615.34225833 417.43772888 613.96659851 C415.87982607 610.53924781 414.32197575 607.11187326 412.76423645 603.68444824 C409.89692905 597.37578029 407.02915529 591.06732584 404.1595459 584.75970459 C402.52313144 581.1627114 400.88700995 577.56558502 399.25105286 573.96838379 C398.93167755 573.26614685 398.61230225 572.56390991 398.2832489 571.84039307 C394.39754138 563.29518466 390.52901376 554.74261688 386.68928528 546.17663574 C382.50471597 536.86371849 378.23806137 527.58812259 373.98716736 518.30535889 C370.32850647 510.31387241 366.67249812 502.32296141 363.12605286 494.28088379 C360.5346347 488.41188154 357.89247448 482.56913209 355.20027161 476.74572754 C354.4741658 475.16834303 353.74825932 473.59086675 353.02253723 472.01330566 C351.92833315 469.63589204 350.83252743 467.25929062 349.73127747 464.88513184 C342.50102584 449.29755506 342.50102584 449.29755506 340.12605286 441.28088379 C339.46605286 441.28088379 338.80605286 441.28088379 338.12605286 441.28088379 C337.86211731 442.1233667 337.59818176 442.96584961 337.32624817 443.8338623 C336.05911838 447.47312298 334.54274714 450.94246448 332.92292786 454.43322754 C332.60890015 455.11679321 332.29487244 455.80035889 331.97132874 456.50463867 C331.29522061 457.97565471 330.61774849 459.44604444 329.93904114 460.91586304 C328.1145632 464.86783352 326.30103968 468.82483443 324.48542786 472.78088379 C324.1159906 473.58505234 323.74655334 474.38922089 323.36592102 475.21775818 C319.92663101 482.70625853 316.51720986 490.20797819 313.12605286 497.71838379 C312.84681976 498.33635834 312.56758667 498.95433289 312.27989197 499.59103394 C308.82910702 507.23162457 305.40833645 514.88512351 302.01277161 522.55041504 C301.66606415 523.33307236 301.31935669 524.11572968 300.96214294 524.92210388 C300.26171927 526.50345213 299.56131033 528.08480691 298.86091614 529.66616821 C298.51528625 530.44652435 298.16965637 531.22688049 297.81355286 532.03088379 C297.46872864 532.80954803 297.12390442 533.58821228 296.76863098 534.39047241 C292.83523859 543.26674581 288.85264963 552.10437723 284.62776184 560.84655762 C280.694538 569.0545868 277.05582894 577.39469115 273.37605286 585.71838379 C268.52935244 596.67907148 263.63602686 607.60983576 258.56355286 618.46838379 C253.97086985 628.29993867 249.42606172 638.15099135 244.93855286 648.03088379 C244.63004395 648.71002838 244.32153503 649.38917297 244.00367737 650.08889771 C238.31665008 662.61468302 232.67752724 675.16197342 227.0410614 687.71057129 C221.41879787 700.22555321 215.73756185 712.71208678 210.01408386 725.18106079 C205.26900163 735.52409037 200.61201538 745.90310152 196.01051331 756.3107605 C190.84555022 767.98993528 185.64997368 779.65391764 180.28822327 791.24435425 C179.68801752 792.54326053 179.09009315 793.84322386 178.49464417 795.14431763 C177.67571502 796.93137295 176.84641917 798.71366665 176.01667786 800.49572754 C175.55293762 801.49724854 175.08919739 802.49876953 174.61140442 803.53063965 C170.8815548 810.43674681 166.52620231 813.75487897 159.12605286 816.28088379 C153.74199098 816.9885105 148.40425299 816.95614473 142.98713684 816.9119873 C141.37466141 816.91713396 139.76219162 816.92442084 138.1497345 816.93367004 C133.79634111 816.95209601 129.4435646 816.93930222 125.09019732 816.91957974 C120.52068612 816.90312156 115.95121178 816.91201594 111.38168335 816.917099 C103.71116857 816.92161152 96.04089831 816.90580133 88.37043762 816.87780762 C79.5179794 816.84574809 70.66596176 816.84577864 61.81347221 816.86302239 C53.27579025 816.87891634 44.73826893 816.87213623 36.20059395 816.85508537 C32.57678482 816.8482351 28.95310524 816.84922641 25.32929802 816.85663033 C21.05844648 816.86432278 16.7880931 816.85207118 12.51732635 816.82478142 C10.95532013 816.81792784 9.39326711 816.81776695 7.83126259 816.82499695 C-9.47055237 816.89582064 -9.47055237 816.89582064 -16.44397831 810.93994999 C-21.16172841 805.8630653 -22.11923418 800.07460998 -22.04579163 793.35427856 C-21.77756368 790.11796621 -20.69744076 787.46006257 -19.44035339 784.48010254 C-19.1746907 783.84601974 -18.90902802 783.21193695 -18.63531494 782.55863953 C-15.34130236 774.81942047 -11.69331203 767.23571389 -8.04603577 759.6585083 C-5.91647598 755.2338879 -3.8026629 750.80174125 -1.68644714 746.37072754 C-1.0577195 745.055914 -1.0577195 745.055914 -0.41629028 743.71453857 C3.00557138 736.55263793 6.36353816 729.3633199 9.68855286 722.15588379 C14.74582206 711.20661093 19.89184356 700.30145464 25.06355286 689.40588379 C32.24775658 674.2683773 39.36807215 659.10282305 46.43611145 643.9107666 C48.16942092 640.18629788 49.90706848 636.46386218 51.64558411 632.74182129 C51.93795959 632.11582031 52.23033508 631.48981934 52.53157043 630.84484863 C53.12224723 629.58015899 53.71292513 628.31546986 54.30360413 627.05078125 C58.51997128 618.02248035 62.72714139 608.99006565 66.91682434 599.94934082 C72.62024825 587.64246125 78.37399978 575.36045143 84.15827942 563.09143066 C89.16559352 552.46927999 94.12667632 541.82684738 99.05622864 531.16833496 C103.26158838 522.09648008 107.54596704 513.06357551 111.84056091 504.03372192 C119.02723163 488.92124594 126.07133992 473.75316012 132.95051575 458.49824524 C137.57363809 448.25068646 142.23918563 438.02518295 147.25105286 427.96057129 C147.96841614 426.51037598 147.96841614 426.51037598 148.70027161 425.03088379 C149.6725206 423.07040363 150.65472964 421.11483902 151.64558411 419.16369629 C152.34747864 417.73283691 152.34747864 417.73283691 153.06355286 416.27307129 C153.48507629 415.43115234 153.90659973 414.5892334 154.34089661 413.72180176 C155.81192588 409.14862056 153.97467551 405.60792446 151.93074036 401.48400879 C151.47030334 400.54323486 151.00986633 399.60246094 150.53547668 398.63317871 C150.02911682 397.60942139 149.52275696 396.58566406 149.00105286 395.53088379 C144.14913547 385.57979418 139.48774727 375.56087025 134.93855286 365.46838379 C129.6197284 353.68139082 124.1738348 341.96180519 118.62605286 330.28088379 C112.86802681 318.15544887 107.23097483 305.98380196 101.70906067 293.74914551 C96.79596255 282.87088841 91.74598837 272.06321869 86.62605286 261.28088379 C80.86829219 249.15532019 75.23097725 236.98380733 69.70906067 224.74914551 C64.79596255 213.87088841 59.74598837 203.06321869 54.62605286 192.28088379 C48.86829219 180.15532019 43.23097725 167.98380733 37.70906067 155.74914551 C32.79596255 144.87088841 27.74598837 134.06321869 22.62605286 123.28088379 C16.87187131 111.16285765 11.23319666 99.00087434 5.72013855 86.77130127 C2.070434 78.67907152 -1.63831166 70.61944788 -5.44816589 62.60119629 C-5.83332367 61.79007385 -6.21848145 60.97895142 -6.61531067 60.14324951 C-8.48273197 56.21461096 -10.35713782 52.28948988 -12.24113464 48.36877441 C-24.21824688 23.33582292 -24.21824688 23.33582292 -20.81144714 12.09338379 C-18.64319812 6.94507688 -14.64516586 3.62106722 -9.68393993 1.22177887 C-6.32234314 0.09618527 -3.54589103 0.01737816 0 0 Z " fill="#FEFEFE" transform="translate(409.8739471435547,341.7191162109375)"/>
<path d="M0 0 C0.67916971 -0.00594224 1.35833942 -0.01188449 2.05809003 -0.0180068 C4.32713262 -0.03530864 6.59596328 -0.03839104 8.86506653 -0.04138184 C10.49488268 -0.05064343 12.12469452 -0.06069346 13.75450134 -0.07147217 C18.17828773 -0.09767616 22.60201347 -0.11060169 27.02586532 -0.11949348 C29.79240145 -0.12536277 32.55892115 -0.13357391 35.32544899 -0.14250183 C43.98909685 -0.16984169 52.65270698 -0.18917924 61.31639498 -0.19690561 C71.30274271 -0.20586149 81.28854217 -0.24093577 91.27472323 -0.2989068 C99.00316548 -0.34220706 106.73145386 -0.36231773 114.46001607 -0.36498785 C119.07151184 -0.36707944 123.68249189 -0.37879648 128.29385948 -0.41462708 C132.63531315 -0.44770472 136.97586672 -0.45184515 141.31740189 -0.43434906 C142.90482439 -0.43281435 144.49229644 -0.44141441 146.07959557 -0.46126556 C155.29015486 -0.56963743 162.94364476 -0.12099153 170.12605286 6.28088379 C172.62594601 9.43550203 174.38523806 12.65365667 176.12605286 16.28088379 C176.55920807 17.17752747 176.55920807 17.17752747 177.00111389 18.09228516 C179.39466485 23.07730182 181.67168081 28.11233179 183.93855286 33.15588379 C184.65735243 34.74319623 185.37667649 36.33027127 186.09651184 37.91711426 C187.82057117 41.72147444 189.53801619 45.52876307 191.25178528 49.33776855 C192.38012737 51.84558053 193.51102232 54.35223915 194.64167786 56.85900879 C195.66181706 59.12348581 196.68074858 61.3884824 197.69709778 63.65466309 C201.1882378 71.43809522 204.71956067 79.20320595 208.25105286 86.96838379 C208.56915924 87.66791168 208.88726563 88.36743958 209.2150116 89.08816528 C211.51815764 94.15264792 213.82202398 99.21680274 216.12605286 104.28088379 C218.75153618 110.05149738 221.37667089 115.82226923 224.00105286 121.59338379 C224.31988434 122.29444244 224.63871582 122.9955011 224.96720886 123.71780396 C228.51637309 131.52288504 232.05592562 139.33202537 235.56355286 147.15588379 C240.34958747 157.83053778 245.22953344 168.46246873 250.10432434 179.09680176 C254.00124332 187.60267387 257.86345216 196.12340231 261.69769287 204.65771484 C264.32075102 210.49527928 266.95542566 216.327451 269.59870911 222.15588379 C277.37857322 239.31620093 285.12660129 256.48837447 292.75105286 273.71838379 C296.97903213 283.27119194 301.23983048 292.79767581 305.77058411 302.21179199 C309.84034947 310.69713845 313.67546516 319.2895237 317.53474426 327.87194824 C318.14065872 329.21921674 318.74661619 330.56646589 319.35261536 331.91369629 C319.65760956 332.5918187 319.96260376 333.2699411 320.27684021 333.96861267 C322.54966762 339.01591958 324.84521078 344.05255602 327.14949036 349.08557129 C327.82058555 350.55349195 328.491647 352.02142803 329.16267395 353.48937988 C330.12741251 355.59962305 331.09315269 357.70936681 332.06288147 359.81732178 C335.87827222 368.11234795 339.46661852 376.44898039 342.77888489 384.95861816 C344.06739362 388.13622359 345.49935721 391.19956402 347.00105286 394.28088379 C350.81398854 403.61385381 350.50412726 412.5235194 346.85554504 421.75476074 C345.68278996 424.50586433 344.42830745 427.21400006 343.16389465 429.9239502 C341.96204862 432.6533366 340.92551987 435.42393477 339.88386536 438.21838379 C337.02402648 445.74153421 333.67930589 453.00630294 330.28520203 460.29898071 C328.38210488 464.38909052 326.49371936 468.48600017 324.60261536 472.58166504 C324.22114853 473.40680099 323.8396817 474.23193695 323.44665527 475.08207703 C319.94839743 482.6524499 316.49330198 490.24175857 313.06355286 497.84338379 C312.64695404 498.76597992 312.64695404 498.76597992 312.22193909 499.70721436 C308.79221408 507.30665202 305.39373091 514.91961662 302.01667786 522.54260254 C301.66972366 523.32575333 301.32276947 524.10890411 300.96530151 524.91578674 C298.86667001 529.65333385 298.86667001 529.65333385 296.76835632 534.39102173 C292.83505732 543.26711419 288.85256135 552.10455991 284.62776184 560.84655762 C280.694538 569.0545868 277.05582894 577.39469115 273.37605286 585.71838379 C268.52935244 596.67907148 263.63602686 607.60983576 258.56355286 618.46838379 C253.97086985 628.29993867 249.42606172 638.15099135 244.93855286 648.03088379 C244.63004395 648.71002838 244.32153503 649.38917297 244.00367737 650.08889771 C238.31665008 662.61468302 232.67752724 675.16197342 227.0410614 687.71057129 C221.41879787 700.22555321 215.73756185 712.71208678 210.01408386 725.18106079 C205.26900163 735.52409037 200.61201538 745.90310152 196.01051331 756.3107605 C190.84555022 767.98993528 185.64997368 779.65391764 180.28822327 791.24435425 C179.68801752 792.54326053 179.09009315 793.84322386 178.49464417 795.14431763 C177.67571502 796.93137295 176.84641917 798.71366665 176.01667786 800.49572754 C175.55293762 801.49724854 175.08919739 802.49876953 174.61140442 803.53063965 C170.8815548 810.43674681 166.52620231 813.75487897 159.12605286 816.28088379 C153.74199098 816.9885105 148.40425299 816.95614473 142.98713684 816.9119873 C141.37466141 816.91713396 139.76219162 816.92442084 138.1497345 816.93367004 C133.79634111 816.95209601 129.4435646 816.93930222 125.09019732 816.91957974 C120.52068612 816.90312156 115.95121178 816.91201594 111.38168335 816.917099 C103.71116857 816.92161152 96.04089831 816.90580133 88.37043762 816.87780762 C79.5179794 816.84574809 70.66596176 816.84577864 61.81347221 816.86302239 C53.27579025 816.87891634 44.73826893 816.87213623 36.20059395 816.85508537 C32.57678482 816.8482351 28.95310524 816.84922641 25.32929802 816.85663033 C21.05844648 816.86432278 16.7880931 816.85207118 12.51732635 816.82478142 C10.95532013 816.81792784 9.39326711 816.81776695 7.83126259 816.82499695 C-9.47055237 816.89582064 -9.47055237 816.89582064 -16.44397831 810.93994999 C-21.16172841 805.8630653 -22.11923418 800.07460998 -22.04579163 793.35427856 C-21.77756368 790.11796621 -20.69744076 787.46006257 -19.44035339 784.48010254 C-19.1746907 783.84601974 -18.90902802 783.21193695 -18.63531494 782.55863953 C-15.34130236 774.81942047 -11.69331203 767.23571389 -8.04603577 759.6585083 C-5.91647598 755.2338879 -3.8026629 750.80174125 -1.68644714 746.37072754 C-1.0577195 745.055914 -1.0577195 745.055914 -0.41629028 743.71453857 C3.00557138 736.55263793 6.36353816 729.3633199 9.68855286 722.15588379 C14.74582206 711.20661093 19.89184356 700.30145464 25.06355286 689.40588379 C32.24775658 674.2683773 39.36807215 659.10282305 46.43611145 643.9107666 C48.16942092 640.18629788 49.90706848 636.46386218 51.64558411 632.74182129 C51.93795959 632.11582031 52.23033508 631.48981934 52.53157043 630.84484863 C53.12224723 629.58015899 53.71292513 628.31546986 54.30360413 627.05078125 C58.51997128 618.02248035 62.72714139 608.99006565 66.91682434 599.94934082 C72.62024825 587.64246125 78.37399978 575.36045143 84.15827942 563.09143066 C89.16559352 552.46927999 94.12667632 541.82684738 99.05622864 531.16833496 C103.26158838 522.09648008 107.54596704 513.06357551 111.84056091 504.03372192 C119.02723163 488.92124594 126.07133992 473.75316012 132.95051575 458.49824524 C137.57363809 448.25068646 142.23918563 438.02518295 147.25105286 427.96057129 C147.96841614 426.51037598 147.96841614 426.51037598 148.70027161 425.03088379 C149.6725206 423.07040363 150.65472964 421.11483902 151.64558411 419.16369629 C152.34747864 417.73283691 152.34747864 417.73283691 153.06355286 416.27307129 C153.48507629 415.43115234 153.90659973 414.5892334 154.34089661 413.72180176 C155.81192588 409.14862056 153.97467551 405.60792446 151.93074036 401.48400879 C151.47030334 400.54323486 151.00986633 399.60246094 150.53547668 398.63317871 C150.02911682 397.60942139 149.52275696 396.58566406 149.00105286 395.53088379 C144.14913547 385.57979418 139.48774727 375.56087025 134.93855286 365.46838379 C129.6197284 353.68139082 124.1738348 341.96180519 118.62605286 330.28088379 C112.86802681 318.15544887 107.23097483 305.98380196 101.70906067 293.74914551 C96.79596255 282.87088841 91.74598837 272.06321869 86.62605286 261.28088379 C80.86829219 249.15532019 75.23097725 236.98380733 69.70906067 224.74914551 C64.79596255 213.87088841 59.74598837 203.06321869 54.62605286 192.28088379 C48.86829219 180.15532019 43.23097725 167.98380733 37.70906067 155.74914551 C32.79596255 144.87088841 27.74598837 134.06321869 22.62605286 123.28088379 C16.87187131 111.16285765 11.23319666 99.00087434 5.72013855 86.77130127 C2.070434 78.67907152 -1.63831166 70.61944788 -5.44816589 62.60119629 C-5.83332367 61.79007385 -6.21848145 60.97895142 -6.61531067 60.14324951 C-8.48273197 56.21461096 -10.35713782 52.28948988 -12.24113464 48.36877441 C-24.21824688 23.33582292 -24.21824688 23.33582292 -20.81144714 12.09338379 C-18.64319812 6.94507688 -14.64516586 3.62106722 -9.68393993 1.22177887 C-6.32234314 0.09618527 -3.54589103 0.01737816 0 0 Z " fill="#48BEC1" transform="translate(409.8739471435547,341.7191162109375)"/>
</svg>
